<svg width="38" height="45" viewBox="0 0 38 45" fill="none" xmlns="http://www.w3.org/2000/svg">
<g clip-path="url(#clip0_27_308)">
<path d="M31.2075 8.04375L24.8742 0.54375C24.5734 0.1875 24.1617 0 23.75 0H9.50004C7.75837 0 6.33337 1.6875 6.33337 3.75V33.75C6.33337 35.8125 7.75837 37.5 9.50004 37.5H28.5C30.2417 37.5 31.6667 35.8125 31.6667 33.75V9.375C31.6667 8.8875 31.5084 8.4 31.2075 8.04375ZM23.75 4.5375L27.835 9.375H24.5417C24.0984 9.375 23.75 8.9625 23.75 8.4375V4.5375ZM28.5 32.8125C28.5 33.3375 28.1517 33.75 27.7084 33.75H10.2917C9.84837 33.75 9.50004 33.3375 9.50004 32.8125V4.6875C9.50004 4.1625 9.84837 3.75 10.2917 3.75H19.7917C20.235 3.75 20.5834 4.1625 20.5834 4.6875V9.375C20.5834 11.4375 22.0084 13.125 23.75 13.125H27.7084C28.1517 13.125 28.5 13.5375 28.5 14.0625V32.8125Z" fill="#990100"/>
<path d="M38 30V39.3562C38 42.45 35.8625 45 33.25 45H4.75C2.1375 45 0.0158333 42.4688 0 39.375V30C0 29.9625 0 29.925 0.0158333 29.8875C0.0475 28.9125 0.744167 28.125 1.58333 28.125C2.4225 28.125 3.11917 28.9125 3.15083 29.8875C3.16667 29.925 3.16667 29.9625 3.16667 30V37.5C3.1825 39.5625 4.6075 41.2312 6.33333 41.2312H31.6667C33.3925 41.2312 34.8175 39.5625 34.8333 37.5V30C34.8333 29.9625 34.8333 29.925 34.8492 29.8875C34.8808 28.9125 35.5775 28.125 36.4167 28.125C37.2558 28.125 37.9525 28.9125 37.9842 29.8875C38 29.925 38 29.9625 38 30Z" fill="#990100"/>
<path d="M23.75 30H14.25C13.3744 30 12.6666 29.1619 12.6666 28.125C12.6666 27.0881 13.3744 26.25 14.25 26.25H23.75C24.6255 26.25 25.3333 27.0881 25.3333 28.125C25.3333 29.1619 24.6255 30 23.75 30ZM23.75 22.5H14.25C13.3744 22.5 12.6666 21.6619 12.6666 20.625C12.6666 19.5881 13.3744 18.75 14.25 18.75H23.75C24.6255 18.75 25.3333 19.5881 25.3333 20.625C25.3333 21.6619 24.6255 22.5 23.75 22.5ZM17.4166 15H14.25C13.3744 15 12.6666 14.1619 12.6666 13.125C12.6666 12.0881 13.3744 11.25 14.25 11.25H17.4166C18.2922 11.25 19 12.0881 19 13.125C19 14.1619 18.2922 15 17.4166 15Z" fill="#990100"/>
</g>
<defs>
<clipPath id="clip0_27_308">
<rect width="38" height="45" fill="white"/>
</clipPath>
</defs>
</svg>
