<svg width="37" height="39" viewBox="0 0 37 39" fill="none" xmlns="http://www.w3.org/2000/svg">
<g clip-path="url(#clip0_27_318)">
<path d="M10.7916 17.875C9.09579 17.875 7.70829 16.4125 7.70829 14.625V13C7.70829 11.2125 9.09579 9.75 10.7916 9.75C12.4875 9.75 13.875 11.2125 13.875 13V14.625C13.875 16.4125 12.4875 17.875 10.7916 17.875ZM7.70829 29.2386L13.875 29.25C14.7229 29.25 15.4166 28.5187 15.4166 27.625V24.375C15.4166 21.6938 13.3354 19.5 10.7916 19.5C8.24788 19.5 6.16663 21.6938 6.16663 24.375V27.625C6.16663 28.522 6.85729 29.2386 7.70829 29.2386ZM29.2916 29.25H20.0416C19.1891 29.25 18.5 28.5236 18.5 27.625C18.5 26.7264 19.1891 26 20.0416 26H29.2916C30.1442 26 30.8333 26.7264 30.8333 27.625C30.8333 28.5236 30.1442 29.25 29.2916 29.25ZM29.2916 22.75H20.0416C19.1891 22.75 18.5 22.022 18.5 21.125C18.5 20.228 19.1891 19.5 20.0416 19.5H29.2916C30.1442 19.5 30.8333 20.228 30.8333 21.125C30.8333 22.022 30.1442 22.75 29.2916 22.75ZM29.2916 16.25H20.0416C19.1891 16.25 18.5 15.522 18.5 14.625C18.5 13.728 19.1891 13 20.0416 13H29.2916C30.1442 13 30.8333 13.728 30.8333 14.625C30.8333 15.522 30.1442 16.25 29.2916 16.25Z" fill="#990100"/>
<path d="M33.9167 3.25H3.08333C1.3875 3.25 0 4.7125 0 6.5V32.5C0 34.2875 1.3875 35.75 3.08333 35.75H33.9167C35.6125 35.75 37 34.2875 37 32.5V6.5C37 4.7125 35.6125 3.25 33.9167 3.25ZM33.9167 31.6875C33.9167 32.1425 33.5775 32.5 33.1458 32.5H3.85417C3.4225 32.5 3.08333 32.1425 3.08333 31.6875V7.3125C3.08333 6.8575 3.4225 6.5 3.85417 6.5H33.1458C33.5775 6.5 33.9167 6.8575 33.9167 7.3125V31.6875Z" fill="#990100"/>
</g>
<defs>
<clipPath id="clip0_27_318">
<rect width="37" height="39" fill="white"/>
</clipPath>
</defs>
</svg>
