<svg width="42" height="40" viewBox="0 0 42 40" fill="none" xmlns="http://www.w3.org/2000/svg">
<g clip-path="url(#clip0_31_177)">
<path d="M13.083 22.6637C14.0766 22.6637 14.8234 22.4488 15.3195 22.0163C15.8156 21.585 16.065 21.0312 16.065 20.3538V20.215C16.065 19.485 15.8235 18.9375 15.3405 18.5725C14.8575 18.2075 14.2236 18.025 13.44 18.025C12.684 18.025 12.0671 18.1812 11.592 18.495C11.1156 18.8075 10.7231 19.2313 10.416 19.765L9.114 18.805C9.29644 18.525 9.51694 18.2487 9.7755 17.9775C10.0341 17.7062 10.3399 17.465 10.689 17.255C11.0381 17.045 11.445 16.8738 11.907 16.7413C12.369 16.61 12.894 16.5438 13.482 16.5438C14.0976 16.5438 14.679 16.62 15.225 16.7725C15.771 16.925 16.2435 17.1512 16.6425 17.45C17.0415 17.7487 17.3565 18.1175 17.5875 18.555C17.8185 18.9937 17.934 19.4912 17.934 20.0475C17.934 20.4987 17.8605 20.9038 17.7135 21.2612C17.5665 21.62 17.367 21.9325 17.115 22.1975C16.863 22.4638 16.5651 22.6887 16.2225 22.8737C15.8799 23.06 15.5111 23.2 15.12 23.2925V23.3725C15.5111 23.4525 15.8931 23.5837 16.2645 23.7637C16.6346 23.945 16.9641 24.1787 17.2515 24.4662C17.5376 24.7537 17.7699 25.1013 17.9445 25.51C18.1191 25.9188 18.207 26.3837 18.207 26.905C18.207 27.5075 18.0876 28.06 17.85 28.5625C17.6111 29.0637 17.2751 29.4925 16.842 29.8463C16.4076 30.2025 15.8826 30.48 15.267 30.6812C14.6514 30.8813 13.9716 30.9812 13.23 30.9812C12.6 30.9812 12.0396 30.915 11.55 30.7838C11.0591 30.6538 10.626 30.4762 10.248 30.2512C9.87 30.0275 9.53663 29.7763 9.2505 29.4988C8.96306 29.22 8.70713 28.9275 8.484 28.6213L9.807 27.66C9.98813 27.9412 10.1889 28.195 10.4055 28.42C10.6221 28.6475 10.8636 28.84 11.13 29C11.3964 29.16 11.697 29.2838 12.033 29.37C12.369 29.4562 12.7614 29.5 13.209 29.5C14.2446 29.5 15.0294 29.275 15.561 28.8237C16.0926 28.375 16.359 27.7337 16.359 26.9V26.7388C16.359 25.9062 16.0926 25.2638 15.561 24.815C15.0294 24.365 14.2446 24.14 13.209 24.14H11.487V22.6588H13.083V22.6637ZM21.5657 30.745V29.2638H25.6594V18.025H25.5137L21.8177 21.305L20.7887 20.245L24.6737 16.785H27.426V29.265H31.206V30.7463L21.5657 30.745ZM37.2225 39.95H0.4725C0.211313 39.95 0 39.7487 0 39.5V5.75C0 5.50125 0.211313 5.3 0.4725 5.3H7.875V2H8.82V5.3H28.875V2H29.8213V5.3H37.2225C37.4837 5.3 37.695 5.50125 37.695 5.75V39.5C37.695 39.7487 37.4837 39.95 37.2225 39.95ZM0.945 39.05H36.75V6.2H29.82V9.5H28.875V6.2H8.82V9.5H7.875V6.2H0.945V39.05Z" fill="#990100"/>
</g>
<defs>
<clipPath id="clip0_31_177">
<rect width="42" height="40" fill="white"/>
</clipPath>
</defs>
</svg>
