<svg width="23" height="21" viewBox="0 0 23 21" fill="none" xmlns="http://www.w3.org/2000/svg">
<path fill-rule="evenodd" clip-rule="evenodd" d="M12.0942 0.712502C11.7486 0.429162 11.251 0.429166 10.9054 0.712513L0.843147 8.96234C0.536858 9.21346 0.421432 9.62997 0.554776 10.0029C0.688119 10.3759 1.04146 10.6248 1.43753 10.6248H2.89473L3.63977 18.767C3.71338 19.5714 4.38798 20.1871 5.19574 20.1871H8.68769C9.03286 20.1871 9.31268 19.9073 9.31268 19.5621V14.7592C9.31268 12.8843 10.8425 12.8843 11.1876 12.8843H11.8126C12.1578 12.8843 13.6876 12.8843 13.6876 14.7592V19.5621C13.6876 19.9073 13.9674 20.1871 14.3126 20.1871H17.8046C18.6124 20.1871 19.287 19.5714 19.3606 18.767L20.1056 10.6248H21.5625C21.9585 10.6248 22.3119 10.3759 22.4452 10.0029C22.5786 9.62996 22.4631 9.21344 22.1568 8.96233L12.0942 0.712502Z" fill="#990100" fill-opacity="0.960784"/>
</svg>
