<svg width="34" height="44" viewBox="0 0 34 44" fill="none" xmlns="http://www.w3.org/2000/svg">
<path d="M10.7064 18.7095H6.98242V22.9862H10.7064V18.7095Z" fill="#990100"/>
<path d="M26.999 18.7095H23.275V22.9862H26.999V18.7095Z" fill="#990100"/>
<path d="M21.5683 18.7095H17.8444V22.9862H21.5683V18.7095Z" fill="#990100"/>
<path d="M10.7064 25.3915H6.98242V29.6683H10.7064V25.3915Z" fill="#990100"/>
<path d="M21.5683 25.3915H17.8444V29.6683H21.5683V25.3915Z" fill="#990100"/>
<path d="M16.1374 25.3915H12.4135V29.6683H16.1374V25.3915Z" fill="#990100"/>
<path d="M26.999 32.0734H23.275V36.3502H26.999V32.0734Z" fill="#990100"/>
<path d="M21.5683 32.0734H17.8444V36.3502H21.5683V32.0734Z" fill="#990100"/>
<path d="M16.1374 32.0734H12.4135V36.3502H16.1374V32.0734Z" fill="#990100"/>
<path d="M30.4048 4.62646H27.3765V7.96062C27.3765 9.20468 26.484 10.2164 25.387 10.2164H21.4329C20.336 10.2164 19.4435 9.20468 19.4435 7.96062V4.62646H14.5329V7.92927C14.5329 9.19065 13.6305 10.2164 12.5213 10.2164H8.61123C7.50204 10.2164 6.59968 9.19065 6.59968 7.92927V4.62646H3.57137C1.60213 4.62646 0 6.44962 0 8.69048V38.9682C0 41.2089 1.60213 43.0322 3.57137 43.0322H30.4048C32.3771 43.0322 33.9816 41.209 33.9816 38.9682V8.69048C33.9816 6.4497 32.3771 4.62646 30.4048 4.62646ZM31.4214 38.8892C31.4214 39.6087 31.0005 40.0919 30.374 40.0919H3.6076C2.9811 40.0919 2.56018 39.6087 2.56018 38.8892V14.9679H31.4214V38.8892Z" fill="#990100"/>
<path d="M8.61227 8.61543H12.52C12.8509 8.61543 13.1201 8.3084 13.1201 7.93095V1.72238C13.1201 0.772646 12.4416 0 11.6076 0H9.52465C8.69065 0 8.01196 0.772562 8.01196 1.72238V7.93095C8.01204 8.3084 8.28123 8.61543 8.61227 8.61543Z" fill="#990100"/>
<path d="M21.433 8.61543H25.387C25.7053 8.61543 25.9641 8.32017 25.9641 7.95767V1.6959C25.9641 0.760879 25.296 0 24.4746 0H22.3454C21.5242 0 20.8561 0.760879 20.8561 1.6959V7.95767C20.856 8.32017 21.1149 8.61543 21.433 8.61543Z" fill="#990100"/>
</svg>
